<?xml version="1.0" encoding="utf-8"?>
<!-- Generator: Adobe Illustrator 18.0.0, SVG Export Plug-In . SVG Version: 6.00 Build 0)  -->
<!DOCTYPE svg PUBLIC "-//W3C//DTD SVG 1.1//EN" "http://www.w3.org/Graphics/SVG/1.1/DTD/svg11.dtd">
<svg version="1.1" id="Layer_1" xmlns="http://www.w3.org/2000/svg" xmlns:xlink="http://www.w3.org/1999/xlink" x="0px" y="0px"
	 width="300px" height="40px" viewBox="0 0 300 40" enable-background="new 0 0 300 40" xml:space="preserve">
<g>
	<path fill="#242424" d="M11.9,1v10.2h5.2v5.9h-5.2v11.9c0,1.5,0.2,2.5,0.5,3c0.4,0.5,1,0.8,1.8,0.8c0.4,0,0.9-0.1,1.4-0.2
		c0.5-0.1,1-0.3,1.5-0.6v6.2c-1,0.5-1.9,0.8-3,1.1c-1.1,0.3-2.1,0.4-3.3,0.4c-2.8,0-4.7-0.6-5.9-1.7C3.8,37,3.2,34.9,3.2,32V17.3H0
		v-5.9h3.3V8.2V4L11.9,1z"/>
	<path fill="#242424" d="M49,26.8v-0.5c0-4.8-1.4-8.6-4-11.5c-2.6-2.8-6.2-4.2-10.7-4.2c-4.4,0-8,1.3-10.7,3.9
		c-2.7,2.6-4.1,6.2-4.1,10.6c0,4.4,1.4,7.9,4.1,10.6c2.7,2.6,6.3,4,10.7,4c3.3,0,6.2-0.7,8.6-2.1c2.4-1.4,4.2-3.3,5.3-5.7L41.4,30
		c-0.7,1.2-1.5,2.1-2.6,2.7c-1.1,0.6-2.3,0.9-3.7,0.9c-2,0-3.7-0.6-4.8-1.8c-1.2-1.1-1.8-2.8-1.9-5.1L49,26.8L49,26.8z M30.2,18.2
		c1-0.9,2.3-1.4,4-1.4c1.6,0,3,0.5,4,1.4c1.1,0.9,1.5,2.3,1.7,3.8H28.6C28.7,20.5,29.2,19.2,30.2,18.2"/>
	<path fill="#242424" d="M82,39v-6.1H78v-9.8v-1.3c0-2.1-0.1-3.5-0.3-4.4c-0.2-0.9-0.6-1.8-1.1-2.4c-1-1.4-2.4-2.4-4.4-3.2
		c-1.9-0.7-4.4-1-7.4-1c-3.2,0-5.9,0.6-7.9,1.7c-2.1,1.1-3.4,2.7-4,4.8l6.3,1.3c0.7-0.8,1.4-1.5,2.3-1.9c0.9-0.4,1.9-0.7,3.1-0.7
		c1.6,0,2.9,0.5,3.7,1.3s1.2,2.2,1.2,3.9v1.7c-1.4-0.5-2.6-0.8-3.8-1.1c-1.2-0.3-2.3-0.4-3.3-0.4c-3.1,0-5.6,0.8-7.3,2.6
		c-1.8,1.8-2.7,4.1-2.7,7.1c0,2.7,0.8,4.8,2.4,6.4c1.6,1.6,3.8,2.3,6.6,2.3c1.5,0,3-0.2,4.3-0.7c1.4-0.5,2.7-1.1,3.8-2.1v1.9L82,39
		L82,39z M66.6,33.5c-0.9,0.5-1.7,0.7-2.6,0.7c-1,0-1.8-0.4-2.4-1s-0.9-1.5-0.9-2.6c0-1.2,0.4-2.2,1.1-2.8c0.7-0.7,1.7-1,3-1
		c0.8,0,1.5,0.1,2.3,0.5c0.8,0.3,1.5,0.8,2.4,1.3v3.2C68.4,32.5,67.5,33.1,66.6,33.5"/>
	<path fill="#242424" d="M105.9,22.5c-0.6-1.7-1.4-3-2.6-3.8c-1.2-0.9-2.6-1.3-4.3-1.3c-2.1,0-3.7,0.7-4.9,2.1
		c-1.2,1.4-1.7,3.3-1.7,5.7c0,2.5,0.6,4.4,1.7,5.8c1.2,1.3,2.9,2.1,5,2.1c1.6,0,3.1-0.4,4.3-1.2c1.2-0.8,2.1-2.2,2.9-3.9l6.7,3.3
		c-1.4,2.9-3.4,5.1-5.8,6.5c-2.4,1.5-5.2,2.3-8.5,2.3c-4.5,0-8.1-1.3-10.9-3.9c-2.7-2.6-4.1-6.2-4.1-10.6c0-4.2,1.4-7.8,4-10.5
		c2.6-2.7,6-4,10.1-4c1.7,0,3.3,0.3,4.6,0.8c1.4,0.5,2.6,1.3,3.7,2.3v-2.4h6.1v11.4h-6.3V22.5z"/>
	<path fill="#242424" d="M115,39v-6.1h3.7V5.9H115V0h12.3v14c1.5-0.9,3-1.7,4.3-2.1c1.4-0.5,2.7-0.7,4.1-0.7c2.5,0,4.4,0.8,5.8,2.3
		s2,3.8,2,6.9V33h4.1v6.1h-12.7V22.6c0-1.7-0.2-2.8-0.7-3.5c-0.5-0.7-1.3-1-2.4-1c-0.7,0-1.4,0.2-2.2,0.5c-0.8,0.3-1.4,0.8-2.1,1.3
		v13.1h4.3v6.1H115V39z"/>
	<path fill="#242424" d="M163.6,33.9c0,3.4-2.7,6.1-6,6.1c-3.3,0-6-2.7-6-6.1s2.7-6.1,6-6.1C160.9,27.8,163.6,30.5,163.6,33.9
		 M252.1,8.7h-2.8l0.8-3.4h11.7L261,8.7h-4.4l1.2,25.9l13.8-29.3h6l1.6,29.4l11.8-26h-4.4l0.7-3.4H300l-0.7,3.4h-3.4l-14.8,30.5
		h-5.8l-1.6-28.7l-13.8,28.6h-6.1L252.1,8.7z M216.6,39.2h-4.2l2.4-11.1h4c-0.1,0.3-0.1,0.7-0.2,0.9c0,0.3-0.1,0.7-0.1,1
		c0,1.9,0.7,3.4,2,4.4c1.4,1,3.3,1.6,5.7,1.6c2.2,0,4-0.6,5.2-1.6c1.3-1,1.9-2.5,1.9-4.4c0-2.3-2.4-4.6-7.3-6.6
		c-0.5-0.2-0.9-0.4-1.1-0.5c-2.9-1.2-4.8-2.4-5.8-3.8c-1-1.2-1.5-2.9-1.5-5c0-2.9,1-5.3,2.9-7c1.9-1.8,4.5-2.6,7.8-2.6
		c1.9,0,3.7,0.3,5.1,0.9c1.4,0.7,2.7,1.6,3.9,2.9l0.8-3h4.3L240.3,16H236c0-0.2,0.1-0.4,0.1-0.6c0-0.2,0-0.5,0-0.9
		c0-1.9-0.6-3.4-1.8-4.4s-3-1.5-5.3-1.5c-2,0-3.7,0.5-4.9,1.4c-1.2,0.9-1.8,2.3-1.8,3.8c0,0.9,0.2,1.7,0.7,2.3
		c0.4,0.7,1.2,1.3,2.1,2c0.5,0.3,1.5,0.8,2.9,1.3c1.4,0.6,2.5,0.9,3.3,1.3c2.5,1.1,4.3,2.3,5.3,3.8c1,1.3,1.5,3,1.5,5.1
		c0,3.2-1.1,5.7-3.3,7.6c-2.2,1.9-5.1,2.8-8.8,2.8c-2,0-3.9-0.3-5.3-0.9c-1.4-0.7-2.6-1.6-3.5-2.8L216.6,39.2z M170.1,39.2l0.7-3.5
		h4.3l5.6-27h-4.3l0.7-3.4h10.8l10,29.4l5.5-26.1h-4.8l0.8-3.4h13.1l-0.7,3.4h-4.3l-6.4,30.5h-6L184.8,8.6l-5.5,26.9h4.8l-0.7,3.5
		L170.1,39.2L170.1,39.2z"/>
</g>
</svg>
